<svg xmlns="http://www.w3.org/2000/svg" id="Layer_1" data-name="Layer 1" version="1.1" viewBox="0 0 1920 1080"><defs><clipPath id="clippath"><rect width="599.57" height="443.74" x="660.21" y="318.13" fill="none" stroke-width="0" rx="16.08" ry="16.08"/></clipPath><style>.cls-3,.cls-4,.cls-6{fill:none}.cls-10,.cls-11,.cls-12,.cls-14,.cls-3,.cls-4,.cls-6{stroke:#000;stroke-linecap:round;stroke-linejoin:round}.cls-10,.cls-11,.cls-12,.cls-14,.cls-4,.cls-6{stroke-width:2px}.cls-3{stroke-width:10px}.cls-10{fill:#b6f0b5}.cls-11{fill:#fd5907}.cls-12{fill:#a1b2ba}.cls-6{stroke-dasharray:0 0 0 0 0 0 0 20}.cls-14{fill:#768cf5}</style></defs><g id="Art"><rect width="1920" height="1080" fill="#ddf9fd" stroke-width="0"/><path d="M427.31 504.29s58.91-107.2 203.77-84.02M639.91 703.24s-127.54-17.82-157.71 74.44M1278.12 761.87s43.46 145.14 185.42 145.14M1285.85 547.75s130.38 48.29 246.26-15.45M1436.5 291.83s-21.25 129.66-158.38 117.95" class="cls-6"/><polygon points="909.7 97.21 892.93 97.21 892.93 119.31 870.44 119.31 870.44 135.17 892.93 135.17 892.93 157.27 909.7 157.27 909.7 135.17 932.32 135.17 932.32 119.31 909.7 119.31 909.7 97.21" class="cls-12"/><polygon points="1768.63 238.4 1746.01 238.4 1746.01 216.3 1729.24 216.3 1729.24 238.4 1706.75 238.4 1706.75 254.26 1729.24 254.26 1729.24 276.36 1746.01 276.36 1746.01 254.26 1768.63 254.26 1768.63 238.4" class="cls-12"/><polygon points="141.15 369.68 124.38 369.68 124.38 391.78 101.89 391.78 101.89 407.64 124.38 407.64 124.38 429.74 141.15 429.74 141.15 407.64 163.77 407.64 163.77 391.78 141.15 391.78 141.15 369.68" class="cls-12"/><polygon points="1055.97 892.63 1039.2 892.63 1039.2 914.73 1016.71 914.73 1016.71 930.59 1039.2 930.59 1039.2 952.69 1055.97 952.69 1055.97 930.59 1078.59 930.59 1078.59 914.73 1055.97 914.73 1055.97 892.63" class="cls-12"/><rect width="599.57" height="443.74" x="660.21" y="318.13" fill="#fdf3d8" stroke="#000" stroke-linecap="round" stroke-linejoin="round" stroke-width="2" rx="16.08" ry="16.08"/><g clip-path="url(#clippath)"><path fill="#f3c211" stroke-width="0" d="M670.75 312.34h573.58c9.79 0 17.75 7.95 17.75 17.75v29.07H653.52v-29.58c0-9.51 7.72-17.23 17.23-17.23Z"/></g><line x1="660.24" x2="1259.79" y1="359.56" y2="359.56" class="cls-4"/><circle cx="687.66" cy="339.79" r="7.84" fill="#f55202" stroke="#000" stroke-linecap="round" stroke-linejoin="round" stroke-width="2"/><circle cx="719.73" cy="339.79" r="7.84" class="cls-14"/><circle cx="751.81" cy="339.79" r="7.84" class="cls-10"/><rect width="599.57" height="443.74" x="660.21" y="318.13" class="cls-4" rx="16.08" ry="16.08"/><line x1="960" x2="960" y1="453.3" y2="619.46" class="cls-3"/><polyline points="1014.45 569.44 960 623.89 905.55 569.44" class="cls-3"/><polyline points="1102.12 609.46 1102.12 673.41 817.88 673.41 817.88 609.46" class="cls-3"/><path d="M1583.39 135.83a26.64 26.64 0 0 1-28.62 33.78l10.23 35.88a15.53 15.53 0 0 1-10.65 19.14l-35.51 10.13a26.65 26.65 0 0 1-14.24 41.3 26.63 26.63 0 0 1-33.88-27.59l-35.51 10.13a15.53 15.53 0 0 1-19.14-10.65L1382.1 128.8a15.54 15.54 0 0 1 10.65-19.15l39.65-11.31a26.64 26.64 0 1 0 39.85-11.36l39.65-11.31a15.55 15.55 0 0 1 19.15 10.65l10.23 35.88a26.66 26.66 0 0 1 42.13 13.61l-.02.02Z" class="cls-10"/><path d="M1210.34 326.1a3.8 3.8 0 0 1 3.52 5.25h5.33c1.22 0 2.21 1 2.21 2.21v5.27a3.8 3.8 0 1 1 0 7.14v5.27c0 1.22-.99 2.21-2.21 2.21h-17.69a2.21 2.21 0 0 1-2.21-2.21v-5.89a3.79 3.79 0 0 0 6.19-2.95 3.8 3.8 0 0 0-6.19-2.95v-5.89c0-1.22 1-2.21 2.21-2.21h5.33a3.8 3.8 0 0 1 3.51-5.25h0Z" class="cls-14"/><path d="M527.45 791a26.64 26.64 0 0 0-42.21 13.35l-29.14-23.29a15.54 15.54 0 0 0-21.77 2.43l-23.06 28.85a26.65 26.65 0 1 0-31.24 39.08l-23.06 28.85a15.53 15.53 0 0 0 2.43 21.77l96.78 77.36a15.54 15.54 0 0 0 21.77-2.42l25.75-32.21a26.65 26.65 0 1 1 25.86-32.36l25.75-32.21a15.54 15.54 0 0 0-2.43-21.78l-29.14-23.29a26.66 26.66 0 0 0 3.72-44.12h-.01Z" class="cls-10"/><path d="M421.9 95.19a26.65 26.65 0 0 1-5.46 43.94l28.18 24.43a15.54 15.54 0 0 1 1.56 21.86l-24.19 27.91a26.64 26.64 0 1 1-32.76 37.81l-24.19 27.91a15.53 15.53 0 0 1-21.85 1.56l-28.84-24.99a26.65 26.65 0 1 1-35.96-31.16l-28.84-24.99a15.53 15.53 0 0 1-1.56-21.85L275 146.46a26.64 26.64 0 1 0 27.14-31.31l27.01-31.16A15.53 15.53 0 0 1 351 82.42l28.19 24.43A26.64 26.64 0 0 1 421.9 95.2h0ZM1755.9 789.73a35.53 35.53 0 0 1-41.71 41.78l9.68 48.79a20.72 20.72 0 0 1-16.25 24.28l-48.31 9.58a35.5 35.5 0 0 1-23.42 53.32 35.52 35.52 0 0 1-42-40.35l-48.31 9.58a20.7 20.7 0 0 1-24.27-16.24l-9.9-49.91a35.52 35.52 0 1 1-12.33-62.24l-9.9-49.91a20.71 20.71 0 0 1 16.23-24.28l51.12-10.14a35.5 35.5 0 0 1 19.44-58.66 35.51 35.51 0 0 1 40.36 46.8l51.12-10.14a20.73 20.73 0 0 1 24.29 16.24l9.68 48.78a35.54 35.54 0 0 1 54.5 22.7l-.02.02h0Z" class="cls-11"/><path d="m1698.23 465.68-25.77 89.28a11.65 11.65 0 0 1-14.38 7.94l-89.28-25.77a11.64 11.64 0 0 1-7.94-14.38l8.58-29.71a19.98 19.98 0 1 0 8.61-29.85l8.58-29.71a11.66 11.66 0 0 1 14.39-7.94l27.5 7.94a19.98 19.98 0 1 1 34.29 9.9l27.5 7.94a11.66 11.66 0 0 1 7.94 14.39l-.02-.03h0ZM388.53 517.39v165.2a20.7 20.7 0 0 1-20.65 20.65h-165.2a20.72 20.72 0 0 1-20.66-20.65v-54.98a35.52 35.52 0 1 0 0-55.24v-54.98c0-11.36 9.3-20.66 20.66-20.66h50.88a35.52 35.52 0 1 1 63.43 0h50.89c11.36 0 20.65 9.3 20.65 20.66h0Z" class="cls-14"/><circle cx="1032.81" cy="113.21" r="6.85" class="cls-4"/><circle cx="1843.73" cy="150.89" r="10.84" class="cls-4"/><circle cx="833.52" cy="934.9" r="10.84" class="cls-4"/><circle cx="93.83" cy="580.28" r="10.84" class="cls-4"/><circle cx="150.38" cy="264.59" r="10.84" class="cls-4"/><circle cx="1799.18" cy="703.24" r="10.84" class="cls-4"/><circle cx="811.83" cy="176.09" r="5.42" class="cls-4"/><circle cx="285.28" cy="374.51" r="5.42" class="cls-4"/><circle cx="1182.54" cy="890.39" r="5.42" class="cls-4"/><circle cx="1576.1" cy="359.56" r="5.42" class="cls-4"/><path d="M471.62 172.74s3.42-.76 9.86-1.65" class="cls-4"/><path fill="none" stroke="#000" stroke-dasharray="0 0 0 0 0 0 0 0 0 0 0 0" stroke-linecap="round" stroke-linejoin="round" stroke-width="2" d="M501.38 169.12c22.1-1.44 55.56-1.39 97.06 5.55 76.89 12.85 112.81 74.11 124.56 107.54"/><path d="M725.94 291.77c1.11 4.34 1.63 7.73 1.63 9.84" class="cls-4"/></g></svg>