<svg xmlns="http://www.w3.org/2000/svg" id="Art" version="1.1" viewBox="0 0 1920 1080"><defs><clipPath id="clippath"><rect width="1921.3" height="1080" x="-.65" class="cls-24"/></clipPath><clipPath id="clippath-1"><path d="m775.85 820.35-427.82-1.51c-36.87-.13-66.94-30.41-66.81-67.28l1.44-407.01c.13-36.87 15.89-71.96 67.28-66.81s131.52 61.2 217.21 66.11 166.54-60.18 210.61-64.59c44.07-4.41 66.94 30.41 66.81 67.28l-1.44 407.01c-.13 36.87-30.41 66.94-67.28 66.81Z" class="cls-24"/></clipPath><clipPath id="clippath-2"><rect width="371.27" height="274.78" x="715.77" y="420.55" class="cls-24" rx="9.96" ry="9.96"/></clipPath><clipPath id="clippath-3"><rect width="371.27" height="274.78" x="748.96" y="458.05" class="cls-24" rx="9.96" ry="9.96"/></clipPath><clipPath id="clippath-4"><rect width="371.27" height="274.78" x="727.12" y="498.01" class="cls-24" rx="9.96" ry="9.96"/></clipPath><clipPath id="clippath-5"><circle cx="1396.74" cy="434.93" r="118.32" class="cls-24"/></clipPath><style>.cls-11,.cls-13,.cls-14,.cls-15,.cls-4,.cls-5,.cls-6,.cls-8,.cls-9{stroke:#000}.cls-11,.cls-13,.cls-14,.cls-15,.cls-4,.cls-5,.cls-8,.cls-9{stroke-width:2px}.cls-11,.cls-13,.cls-14,.cls-15,.cls-5,.cls-6,.cls-8,.cls-9{stroke-linecap:round;stroke-linejoin:round}.cls-21{isolation:isolate}.cls-15{fill:#768cf5}.cls-24,.cls-29{stroke-width:0}.cls-24,.cls-6,.cls-9{fill:none}.cls-4{stroke-miterlimit:10;fill:#fff}.cls-5{fill:#fdf3d8}.cls-6{stroke-width:10px}.cls-8{fill:#b6f0b5}.cls-11{fill:#f55202}.cls-13{fill:#c169ef}.cls-14{fill:#bfcad0}.cls-29{fill:#f3c211}</style></defs><g clip-path="url(#clippath)"><rect width="1921.3" height="1080" x="-.65" fill="#ffd1c2" stroke-width="0"/><path fill="#768cf5" stroke="#000" stroke-linecap="round" stroke-linejoin="round" stroke-width="2" d="M926.31 675.18c-1.61-61.52-53-110.72-114.53-109.84a112.11 112.11 0 0 0-36.21 6.52V415.67c0-36.1-29.53-65.63-65.63-65.63H551.86a112.2 112.2 0 0 0 8.45-42.94c0-62.3-50.45-112.82-112.73-112.91h-1.3c-62.28.08-112.73 50.61-112.73 112.91 0 15.19 2.99 29.68 8.45 42.94H183.92c-36.09 0-65.63 29.53-65.63 65.63v156.19a112.2 112.2 0 0 0-36.21-6.52c-61.53-.88-112.92 48.33-114.53 109.84-1.67 63.74 49.52 115.92 112.88 115.92 13.3 0 26.03-2.29 37.87-6.52v156.14c0 36.1 29.53 65.63 65.63 65.63h161.7a112.43 112.43 0 0 0-12.08 50.85c0 62.52 50.8 113.18 113.39 112.91 62.58.27 113.39-50.39 113.39-112.91a112.3 112.3 0 0 0-12.08-50.85h161.7c36.1 0 65.63-29.53 65.63-65.63V784.58a112.22 112.22 0 0 0 37.87 6.52c63.36 0 114.55-52.18 112.88-115.92h-.02Z" opacity=".25" style="isolation:isolate"/><path fill="#768cf5" stroke="#000" stroke-linecap="round" stroke-linejoin="round" stroke-width="2" d="M883.38 732.23c-1.61-61.52-53-110.72-114.53-109.84a112.11 112.11 0 0 0-36.21 6.52V472.72c0-36.1-29.53-65.63-65.63-65.63H508.93a112.2 112.2 0 0 0 8.45-42.94c0-62.3-50.45-112.82-112.73-112.91h-1.3c-62.28.08-112.73 50.61-112.73 112.91 0 15.19 2.99 29.68 8.45 42.94H140.99c-36.09 0-65.63 29.53-65.63 65.63v156.19a112.2 112.2 0 0 0-36.21-6.52c-61.53-.88-112.92 48.33-114.53 109.84-1.67 63.74 49.52 115.92 112.88 115.92 13.3 0 26.03-2.29 37.87-6.52v156.14c0 36.1 29.53 65.63 65.63 65.63h161.7a112.43 112.43 0 0 0-12.08 50.85c0 62.52 50.8 113.18 113.39 112.91 62.58.27 113.39-50.39 113.39-112.91a112.3 112.3 0 0 0-12.08-50.85h161.7c36.1 0 65.63-29.53 65.63-65.63V841.63a112.22 112.22 0 0 0 37.87 6.52c63.36 0 114.55-52.18 112.88-115.92h-.02Z" opacity=".07" style="isolation:isolate"/><path fill="#768cf5" stroke="#000" stroke-linecap="round" stroke-linejoin="round" stroke-width="2" d="M963.34 634.47c-1.61-61.52-53-110.72-114.53-109.84a112.11 112.11 0 0 0-36.21 6.52V374.96c0-36.1-29.53-65.63-65.63-65.63H588.89a112.2 112.2 0 0 0 8.45-42.94c0-62.3-50.45-112.82-112.73-112.91h-1.3c-62.28.08-112.73 50.61-112.73 112.91 0 15.19 2.99 29.68 8.45 42.94H220.95c-36.09 0-65.63 29.53-65.63 65.63v156.19a112.2 112.2 0 0 0-36.21-6.52C57.58 523.75 6.19 572.96 4.58 634.47 2.91 698.21 54.1 750.39 117.46 750.39c13.3 0 26.03-2.29 37.87-6.52v156.14c0 36.1 29.53 65.63 65.63 65.63h161.7a112.43 112.43 0 0 0-12.08 50.85c0 62.52 50.8 113.18 113.39 112.91 62.58.27 113.39-50.39 113.39-112.91a112.3 112.3 0 0 0-12.08-50.85h161.7c36.1 0 65.63-29.53 65.63-65.63V743.87a112.22 112.22 0 0 0 37.87 6.52c63.36 0 114.55-52.18 112.88-115.92h-.02Z" opacity=".49" style="isolation:isolate"/><path fill="#768cf5" stroke="#000" stroke-linecap="round" stroke-linejoin="round" stroke-width="2" d="M1001.41 588.47c-1.61-61.52-53-110.72-114.53-109.84a112.11 112.11 0 0 0-36.21 6.52V328.96c0-36.1-29.53-65.63-65.63-65.63H626.96a112.2 112.2 0 0 0 8.45-42.94c0-62.3-50.45-112.82-112.73-112.91h-1.3c-62.28.08-112.73 50.61-112.73 112.91 0 15.19 2.99 29.68 8.45 42.94H259.02c-36.09 0-65.63 29.53-65.63 65.63v156.19a112.2 112.2 0 0 0-36.21-6.52c-61.53-.88-112.92 48.33-114.53 109.84-1.67 63.74 49.52 115.92 112.88 115.92 13.3 0 26.03-2.29 37.87-6.52v156.14c0 36.1 29.53 65.63 65.63 65.63h161.7a112.43 112.43 0 0 0-12.08 50.85c0 62.52 50.8 113.18 113.39 112.91 62.58.27 113.39-50.39 113.39-112.91a112.3 112.3 0 0 0-12.08-50.85h161.7c36.1 0 65.63-29.53 65.63-65.63V697.87a112.22 112.22 0 0 0 37.87 6.52c63.36 0 114.55-52.18 112.88-115.92h-.02Z" opacity=".72" style="isolation:isolate"/><path d="M1042.27 541.82c-1.61-61.52-53-110.72-114.53-109.84a112.11 112.11 0 0 0-36.21 6.52V282.31c0-36.1-29.53-65.63-65.63-65.63H667.82a112.2 112.2 0 0 0 8.45-42.94c0-62.3-50.45-112.82-112.73-112.91h-1.3c-62.28.08-112.73 50.61-112.73 112.91 0 15.19 2.99 29.68 8.45 42.94H299.88c-36.09 0-65.63 29.53-65.63 65.63V438.5a112.2 112.2 0 0 0-36.21-6.52c-61.53-.88-112.92 48.33-114.53 109.84-1.67 63.74 49.52 115.92 112.88 115.92 13.3 0 26.03-2.29 37.87-6.52v156.14c0 36.1 29.53 65.63 65.63 65.63h161.7a112.43 112.43 0 0 0-12.08 50.85c0 62.52 50.8 113.18 113.39 112.91 62.58.27 113.39-50.39 113.39-112.91a112.3 112.3 0 0 0-12.08-50.85h161.7c36.1 0 65.63-29.53 65.63-65.63V651.22a112.22 112.22 0 0 0 37.87 6.52c63.36 0 114.55-52.18 112.88-115.92h-.02Z" class="cls-15"/><path fill="#404f56" stroke="#000" stroke-linecap="round" stroke-linejoin="round" stroke-width="2" d="m775.85 820.35-427.82-1.51c-36.87-.13-66.94-30.41-66.81-67.28l1.44-407.01c.13-36.87 15.89-71.96 67.28-66.81s131.52 61.2 217.21 66.11c85.69 4.91 166.54-60.18 210.61-64.59s66.94 30.41 66.81 67.28l-1.44 407.01c-.13 36.87-30.41 66.94-67.28 66.81h0Z"/><g clip-path="url(#clippath-1)"><path d="m333.35 377.95-31.43-94.98a11.15 11.15 0 0 1 12.19-14.54l88.56 12.84a11.15 11.15 0 0 1 7.55 17.4l-57.12 82.14a11.15 11.15 0 0 1-19.74-2.86h-.01Z" class="cls-5"/><path d="m448.23 400.69-37.32-92.82a11.16 11.16 0 0 1 11.25-15.28l89.19 7.27a11.15 11.15 0 0 1 8.63 16.9l-51.86 85.55a11.15 11.15 0 0 1-19.88-1.62h0ZM802.61 376.76l32.1-94.76a11.15 11.15 0 0 0-12.08-14.63l-88.65 12.22a11.16 11.16 0 0 0-7.68 17.35l56.54 82.54a11.15 11.15 0 0 0 19.76-2.72h.01Z" class="cls-5"/><path d="m689.1 401.31 37.98-92.56a11.15 11.15 0 0 0-11.14-15.35l-89.24 6.64c-8.27.62-13 9.72-8.75 16.83l51.26 85.92a11.15 11.15 0 0 0 19.89-1.48h0ZM558.66 429.98l-44.43-89.64a11.15 11.15 0 0 1 10.03-16.1l89.48.32a11.15 11.15 0 0 1 9.92 16.17l-45.06 89.33a11.16 11.16 0 0 1-19.95-.07h.01Z" class="cls-5"/><path stroke-width="0" d="M616.09 467.89a72.67 72.67 0 0 1 1.75 19.45c-1.63 37.37-32.15 67.71-69.53 69.12a72.41 72.41 0 0 1-73.84-86.48 8.88 8.88 0 0 0-12.49-9.85c-78.96 37.17-129.15 125.39-107.97 222.13 16.1 73.52 74.04 131.28 147.6 147.2 127.57 27.62 240.24-68.83 240.24-191.6 0-79.4-47.13-147.78-114.94-178.71a7.75 7.75 0 0 0-10.83 8.74Z"/><path fill="#fd5907" stroke-width="0" d="M613.58 769.33c-25.04 0-48.38 6.17-68.08 16.82-19.7-10.65-43.04-16.82-68.08-16.82-70.38 0-127.44 48.72-127.44 108.81s57.06 108.81 127.44 108.81c25.04 0 48.38-6.17 68.08-16.82 19.7 10.65 43.04 16.82 68.08 16.82 70.38 0 127.44-48.72 127.44-108.81s-57.06-108.81-127.44-108.81Z"/><path d="M613.58 769.33c-25.04 0-48.38 6.17-68.08 16.82-19.7-10.65-43.04-16.82-68.08-16.82-70.38 0-127.44 48.72-127.44 108.81s57.06 108.81 127.44 108.81c25.04 0 48.38-6.17 68.08-16.82 19.7 10.65 43.04 16.82 68.08 16.82 70.38 0 127.44-48.72 127.44-108.81s-57.06-108.81-127.44-108.81Z" class="cls-9"/><path d="M605.65 858.41c-6.73-31.37-30.79-58.2-64.31-74.4" class="cls-9"/></g><path d="m775.85 820.35-427.82-1.51c-36.87-.13-66.94-30.41-66.81-67.28l1.44-407.01c.13-36.87 15.89-71.96 67.28-66.81s131.52 61.2 217.21 66.11c85.69 4.91 166.54-60.18 210.61-64.59s66.94 30.41 66.81 67.28l-1.44 407.01c-.13 36.87-30.41 66.94-67.28 66.81h0Z" class="cls-9"/><line x1="343.69" x2="516.86" y1="818.68" y2="819.43" class="cls-9"/><rect width="371.27" height="274.78" x="715.77" y="420.55" class="cls-5" rx="9.96" ry="9.96"/><g clip-path="url(#clippath-2)"><path d="M722.29 416.96h355.18c6.07 0 10.99 4.92 10.99 10.99v18H711.62v-18.32c0-5.89 4.78-10.67 10.67-10.67Z" class="cls-29"/></g><line x1="715.78" x2="1087.04" y1="446.2" y2="446.2" class="cls-9"/><circle cx="732.76" cy="433.96" r="4.85" class="cls-11"/><circle cx="752.62" cy="433.96" r="4.85" class="cls-15"/><circle cx="772.48" cy="433.96" r="4.85" class="cls-8"/><rect width="371.27" height="274.78" x="715.77" y="420.55" class="cls-9" rx="9.96" ry="9.96"/><rect width="371.27" height="274.78" x="748.96" y="458.05" class="cls-5" rx="9.96" ry="9.96"/><g clip-path="url(#clippath-3)"><path d="M755.49 454.47h355.18c6.07 0 10.99 4.92 10.99 10.99v18H744.82v-18.32c0-5.89 4.78-10.67 10.67-10.67Z" class="cls-29"/></g><line x1="748.98" x2="1120.24" y1="483.71" y2="483.71" class="cls-9"/><circle cx="765.96" cy="471.46" r="4.85" class="cls-11"/><circle cx="785.82" cy="471.46" r="4.85" class="cls-15"/><circle cx="805.68" cy="471.46" r="4.85" class="cls-8"/><rect width="371.27" height="274.78" x="748.96" y="458.05" class="cls-9" rx="9.96" ry="9.96"/><rect width="371.27" height="274.78" x="727.12" y="498.01" class="cls-5" rx="9.96" ry="9.96"/><g clip-path="url(#clippath-4)"><path d="M733.64 494.43h355.18c6.07 0 10.99 4.92 10.99 10.99v18H722.97V505.1c0-5.89 4.78-10.67 10.67-10.67Z" class="cls-29"/></g><line x1="727.13" x2="1098.39" y1="523.67" y2="523.67" class="cls-9"/><circle cx="744.11" cy="511.42" r="4.85" class="cls-11"/><circle cx="763.97" cy="511.42" r="4.85" class="cls-15"/><circle cx="783.84" cy="511.42" r="4.85" class="cls-8"/><rect width="371.27" height="274.78" x="727.12" y="498.01" class="cls-9" rx="9.96" ry="9.96"/><circle cx="912.75" cy="644.55" r="89.65" class="cls-4"/><path d="M858.44 668.42a61.32 61.32 0 1 1 117.82-23.87 61.32 61.32 0 0 1-61.32 61.32" class="cls-6"/><polyline points="914.95 609.24 914.95 644.55 944.55 663.62" class="cls-6"/><polyline points="865.43 651.96 858.3 669.22 843.42 657.94" class="cls-6"/><path d="M953.93 276.32h332.62c6.56 0 11.89-6.37 11.89-14.22v-35.6c0-7.86-5.32-14.22-11.89-14.22H953.93c-6.56 0-11.89 6.37-11.89 14.22v35.6c0 7.86 5.32 14.22 11.89 14.22Z" class="cls-4"/><text class="cls-21" font-family="Poppins-Regular,Poppins" font-size="40" style="isolation:isolate" transform="translate(963.38 257.83)"><tspan x="0" y="0">•••••••••••••</tspan></text><path d="M1276.25 245.3s-8.26 9.22-18.45 9.22-18.45-9.22-18.45-9.22 8.26-11.23 18.45-11.23 18.45 11.23 18.45 11.23Z" class="cls-14"/><circle cx="1257.8" cy="244.3" r="6.87" class="cls-4"/><circle cx="1257.8" cy="244.3" r="2.99" fill="#404f56" stroke-width="0"/><circle cx="1396.74" cy="434.93" r="118.32" class="cls-15"/><g clip-path="url(#clippath-5)"><path d="M1290.36 393.48a45.24 45.24 0 0 0 16.4 15.09c3.13 1.67 6.55 3.04 8.96 5.64 3.7 3.99 4.19 9.88 5.02 15.27 1.21 7.82 3.77 14.95 6.73 22.24 2.29 5.65 2.88 11.45 6.84 16.49 1.6 2.04 3.55 3.8 5.1 5.88 2.2 2.95 3.78 6.7 7.14 8.21 1.2.54 2.82.63 3.63-.4 1.02-1.29.04-3.13-.74-4.59a16.77 16.77 0 0 1-1.77-5.11c-.31-1.73.09-4.08 1.83-4.33 1.55-.23 2.62 1.45 3.3 2.86 2.31 4.82 4.96 9.48 7.93 13.92 1.85 2.77 3.75 4.62 6.97 5.59 2.64.79 5.33 1.26 8.03 1.78 3.17.61 7.19 1.24 9.4 3.86 2.83 3.34-.3 7.33-2.32 10.4-4.92 7.48-12.31 13.12-16.37 21.21-5.38 10.71-3.7 23.67.25 34.99.58 1.65 1.23 3.33 2.45 4.57 5.78 5.87 19.33 3.26 26.52 2.91a163.34 163.34 0 0 0 33.43-4.92 114.12 114.12 0 0 0 25.8-10.07 95 95 0 0 0 11.64-7.51c.95-.72 2-1.93 3.11-2.38.69-.29 1.81.02 2.38-.32 2-1.18 2.54-3.71 3.42-5.79 1.46-3.46 2.95-7.2 2.1-10.86-1-4.34-5.11-7.36-9.37-8.68s-8.79-1.35-13.2-2.01c-2.04-.31-4.11-.77-5.84-1.89-1.96-1.27-3.32-3.27-4.46-5.31-3.72-6.64-6.15-14.65-12.6-18.67-3.73-2.33-8.34-2.92-12.72-2.52s-8.62 1.72-12.83 2.98c-4.3 1.28-9.51 2.32-12.81-.72-2.13-1.96-2.88-5.15-5.74-6.17s-6.2.35-9.06-1.6c-1.72-1.17-2.71-3.18-3.15-5.21-.94-4.25.31-8.93 3.24-12.15s7.46-4.9 11.79-4.38c4.52.55 8.64 3.33 13.19 3.29.67 0 1.44-.14 1.76-.73.4-.73-.16-1.59-.68-2.23-2.23-2.7-7.11-5.45-4.08-8.85 3.97-4.45 6.72-7.54 7.05-13.96.29-5.61-1.07-11.16-1.65-16.75-.58-5.59-.26-11.61 2.94-16.23 2.98-4.29 7.94-6.66 12.62-8.99 10.12-5.03 20.19-10.97 26.39-20.71 5.88-9.23 8.8-20.31 6.98-31.2-3.11-18.68-18.48-33.66-36.12-40.54s-37.24-6.79-56.04-4.52c-18.62 2.25-37.42 6.74-53.11 17.01-15.03 9.84-28.06 26.75-28.46 45.35-.17 8 2.47 18.25 5.85 25.45a44.53 44.53 0 0 0 2.94 5.27v.04Z" class="cls-8"/><path d="M1488.39 378.87c-2.66 5.91-6.91 10.96-11.38 15.58-1.31 1.35-2.66 2.7-3.52 4.37-1.45 2.81-1.09 5.59 2.1 6.54 3.72 1.11 6.7-3.18 10.74-2.19 2 .49 3.77 1.62 5.5 2.73 2.53 1.63 7.63 3.07 7.23 6.9-.15 1.42-1.16 2.58-2.21 3.55-4.65 4.32-10.71 6.82-16.83 8.5-3.13.86-6.43 1.58-8.97 3.6-5.41 4.32-5.61 13.25-3.56 19.33 1.39 4.11 4.3 8 8.46 9.23 4.28 1.26 8.87-.5 13.32-.11 3.47.3 6.8 1.96 9.12 4.56 1.68 1.88 2.87 4.23 4.91 5.72 3.18 2.32 6.33.41 8.51-2.18 6.66-7.9 8.86-18.5 11.16-28.57 2.16-9.47 4.62-19.01 4.52-28.73-.12-10.55-3.26-20.85-7.32-30.59-1.9-4.56-4.06-9.13-7.5-12.67-2.42-2.5-5.38-4.4-8.34-6.21-4.54-2.77-7.82-2.62-10.1 2.18-2.73 5.76-3.13 12.29-5.68 18.12l-.15.35h-.01Z" class="cls-8"/></g><circle cx="1396.74" cy="434.93" r="118.32" class="cls-9"/><path fill="#f7bb22" stroke="#000" stroke-linecap="round" stroke-linejoin="round" stroke-width="2" d="M1394.62 266.31a34.6 34.6 0 0 0-34.59 34.6c0 16.01 16.22 45.69 28.24 57.42a8.92 8.92 0 0 0 12.52-.07c11.94-11.89 28.43-41.3 28.43-57.35a34.6 34.6 0 0 0-34.6-34.6h0Zm0 47.28a15.1 15.1 0 1 1 .01-30.19 15.1 15.1 0 0 1-.01 30.19Z"/><line x1="1301.01" x2="1285.47" y1="780.63" y2="799.38" class="cls-9"/><line x1="1219.61" x2="1235.16" y1="780.63" y2="799.38" class="cls-9"/><line x1="1259.06" x2="1258.76" y1="792.85" y2="767.28" class="cls-9"/><path d="M1737.32 138.34v182.27c0 11.76-34.84 21.29-77.82 21.29s-77.82-9.53-77.82-21.29h-.04V138.34h155.68Z" class="cls-14"/><ellipse cx="1659.51" cy="138.34" class="cls-14" rx="77.82" ry="20.88"/><path d="M1737.33 260.34c0 11.53-34.84 20.88-77.82 20.88s-77.82-9.35-77.82-20.88M1737.33 198.35c0 11.53-34.84 20.88-77.82 20.88s-77.82-9.35-77.82-20.88" class="cls-9"/><ellipse cx="1712.9" cy="183.79" class="cls-14" rx="5.43" ry="6.13"/><ellipse cx="1712.9" cy="243.98" class="cls-14" rx="5.43" ry="6.13"/><ellipse cx="1712.9" cy="304.88" class="cls-14" rx="5.43" ry="6.13"/><rect width="324.95" height="191.45" x="1448.07" y="624.35" fill="#e6caf5" stroke="#000" stroke-linecap="round" stroke-linejoin="round" stroke-width="2" rx="7.42" ry="7.42"/><circle cx="1548.12" cy="720.07" r="63.99" fill="#fff" stroke="#000" stroke-linecap="round" stroke-linejoin="round" stroke-width="2"/><path d="M1581.18 757.69h0a27.6 27.6 0 0 0-27.51-27.51h-11.11a27.6 27.6 0 0 0-27.51 27.51h66.13Z" class="cls-13"/><circle cx="1548.12" cy="702.87" r="27.32" class="cls-13"/><line x1="1635" x2="1738.41" y1="682.15" y2="682.15" class="cls-9"/><line x1="1635" x2="1738.41" y1="707.43" y2="707.43" class="cls-9"/><line x1="1635" x2="1738.41" y1="732.71" y2="732.71" class="cls-9"/><line x1="1635" x2="1738.41" y1="758" y2="758" class="cls-9"/><rect width="218.94" height="116.26" x="1150.84" y="842.05" fill="#9be9f9" stroke="#000" stroke-linecap="round" stroke-linejoin="round" stroke-width="2" rx="12" ry="12"/><rect width="218.94" height="116.26" x="1150.84" y="821.33" fill="#ddf9fd" stroke="#000" stroke-linecap="round" stroke-linejoin="round" stroke-width="2" rx="12" ry="12"/><text class="cls-21" font-family="Poppins-Regular,Poppins" font-size="45" style="isolation:isolate" transform="translate(1203.84 894.24)"><tspan x="0" y="0">Enter</tspan></text><polyline points="1234.69 687.85 1209.84 668.49 1234.88 649.39" class="cls-9"/><line x1="1360.03" x2="1209.95" y1="668.62" y2="668.62" class="cls-9"/><polyline points="1632.64 458.04 1607.79 438.68 1632.84 419.58" class="cls-9"/><line x1="1708.74" x2="1607.9" y1="438.81" y2="438.81" class="cls-9"/><polyline points="976.78 383.12 951.93 363.75 976.97 344.65" class="cls-9"/><line x1="1245.56" x2="952.04" y1="363.88" y2="363.88" class="cls-9"/><polyline points="1566.11 577.17 1541.26 557.81 1566.3 538.7" class="cls-9"/><line x1="1812.02" x2="1541.37" y1="557.93" y2="557.93" class="cls-9"/><polyline points="1458.5 913.47 1433.65 894.11 1458.7 875" class="cls-9"/><line x1="1740.12" x2="1433.76" y1="894.24" y2="894.24" class="cls-9"/><polyline points="1267.26 161.58 1242.41 142.22 1267.46 123.11" class="cls-9"/><polyline points="1242.52 142.34 1462.27 142.34 1516.65 191.34" class="cls-9"/><polyline points="966.89 839 942.04 858.36 967.09 877.47" class="cls-9"/><polyline points="942.16 858.24 1071.9 858.24 1105.42 883.83" class="cls-9"/></g></svg>